
<svg width="1500" height="1200" viewBox="0 0 1500 1200" fill="none" xmlns="http://www.w3.org/2000/svg">
<rect width="1500" height="1200" fill="white"/>
<path d="M681.551 243.354C687.009 220.157 683.825 204.881 681.551 200.143C695.576 206.966 726.81 221.294 739.546 224.023C737.84 239.943 741.82 254.726 746.369 262.118C734.997 299.644 693.491 257.569 681.551 243.354Z" fill="#FCC4B2"/>
<path d="M742.39 259.274C722.489 270.077 705.431 259.274 693.491 245.06C692.354 238.237 692.944 224.279 701.451 229.14C709.411 233.688 738.208 232.551 738.877 231.414C737.953 244.26 738.559 253.049 742.39 259.274Z" fill="#FDD1BE"/>
<path d="M801.578 1088.94L809.317 1053.34H865.814C861.944 1063.4 854.721 1080.43 852.657 1088.94H801.578Z" fill="#FDD1BD"/>
<path d="M870.118 1060.15L796.159 1062.44C777.098 909.691 738.975 600.384 738.975 585.135L851.716 555.303L870.118 1060.15Z" fill="#3982FB"/>
<path d="M738.974 585.133C738.974 592.592 748.095 670.405 759.645 765.838L799.208 578.98L738.974 585.133Z" fill="#1358D0"/>
<path d="M800.916 1109.06C793.486 1093.58 800.916 1076.81 805.56 1070.36C813.299 1081.97 831.099 1084.29 853.543 1085.84C852.924 1070.98 858.961 1064.69 862.057 1063.4C875.197 1092.71 881.759 1112.93 934.806 1112.93C890.692 1122.22 809.429 1110.61 800.916 1109.06Z" fill="#120F0F"/>
<path d="M853.543 1085.84C852.924 1070.98 858.961 1064.69 862.056 1063.4C862.913 1065.31 864.393 1067.75 866.534 1070.36C861.324 1070.36 861.179 1081.94 861.758 1087.72L853.543 1085.84Z" fill="#626262"/>
<path d="M934.806 1112.93C890.692 1122.22 809.429 1110.61 800.916 1109.06C799.626 1113.45 798.749 1122.22 805.559 1122.22C814.073 1122.22 940.997 1133.05 934.806 1112.93Z" fill="#120F0F"/>
<path d="M635.957 1085.84V1057.21L698.645 1054.11C688.584 1065.72 682.651 1084.04 683.941 1088.94L635.957 1085.84Z" fill="#FDD1BD"/>
<path d="M634.516 1063.2L607.067 585.135H787.009C762.61 633.323 723.979 922.398 707.713 1060.91L634.516 1063.2Z" fill="#3982FB"/>
<path d="M646.716 651.473C646.716 770.163 647.936 1011.2 652.816 1025.84C656.628 987.719 652.053 669.009 646.716 651.473Z" fill="#1358D0"/>
<path d="M766.723 752.473C771.381 840.268 794.877 1042.88 799.756 1057.52C799.335 1012.45 772.06 770.009 766.723 752.473Z" fill="#1358D0"/>
<path d="M631.37 1109.06C623.94 1093.58 631.37 1076.82 636.013 1070.37C643.753 1081.97 661.553 1084.3 683.997 1085.84C683.378 1070.98 689.414 1064.69 692.51 1063.4C705.65 1092.71 731.965 1112.93 765.259 1112.93C721.146 1122.22 639.883 1110.61 631.37 1109.06Z" fill="#120F0F"/>
<path d="M683.997 1085.84C683.378 1070.98 689.414 1064.69 692.51 1063.4C693.226 1065 694.378 1066.97 695.988 1069.1C693.296 1073.05 689.154 1082.3 694.121 1087.72C689.606 1086.82 685.49 1086.09 683.997 1085.84Z" fill="#626262"/>
<path d="M765.26 1112.93C721.146 1122.22 639.883 1110.61 631.37 1109.06C630.08 1113.45 629.203 1122.22 636.013 1122.22C644.527 1122.22 771.451 1133.05 765.26 1112.93Z" fill="#120F0F"/>
<path d="M905.281 557.173C904.129 555.212 901.429 547.547 900.428 543.813C893.589 546.725 878.814 553.189 874.421 555.752C881 567.499 874.912 574.647 874.421 581.5C871.724 619.199 949.5 632.498 905.281 557.173Z" fill="#FDD1BE"/>
<path d="M870.883 558.14C862.83 560.484 863.683 552.529 865.116 548.257L904.52 534.478C905.362 535.753 907.197 538.863 907.797 541.103C908.548 543.903 880.95 555.21 870.883 558.14Z" fill="#F8F9FD"/>
<path d="M906.378 537.554C914.631 533.032 876.226 432.508 871.593 422.552C843.584 362.358 834.439 274.147 756 249.5C779.774 335.136 853.989 537.382 854.958 552.361C873.267 555.7 897.745 542.285 906.185 537.66L906.378 537.554Z" fill="#1359D1"/>
<path d="M854.332 551.48C859.361 552.397 863.903 552.329 868.017 551.654C860.837 495.359 837.366 375.266 800.925 345.262C824.899 432.855 853.583 539.91 854.332 551.48Z" fill="#104DC8"/>
<path d="M679.845 245.626C686.668 223.793 683.825 207.342 681.551 201.846C697.282 207.531 730.449 220.04 739.546 224.589C739.546 254.723 744.284 258.703 746.369 258.135L737.84 274.055C721.351 269.885 686.668 258.362 679.845 245.626Z" fill="#F9B3B0"/>
<path d="M651.985 258.135C630.606 274.51 612.184 272.349 605.93 269.506L594.559 358.773L605.93 608.552C705.331 617.649 770.149 622.766 852.024 577.849C863.288 571.669 794.871 281.292 748.543 247.471C748.543 290.2 701.228 262.528 677.571 243.352C673.022 245.436 661.537 251.312 651.985 258.135Z" fill="#1359D1"/>
<path d="M609.342 358.774C604.793 360.138 597.591 355.552 594.559 353.088L600.144 468.114C607.157 435.136 606.612 364.687 609.342 358.774Z" fill="#104DC8"/>
<path d="M677.571 241.078L654.521 256.441C666.802 272.361 717.182 297.746 734.997 304.759V269.507C719.987 271.781 690.459 251.502 677.571 241.078Z" fill="#FFFEFE"/>
<path d="M740.584 241.82C741.948 261.379 740.584 266.269 735.466 269.681C739.446 276.314 750.804 291.909 754.898 297.368C763.085 275.989 763.327 255.656 762.189 251.486C759.347 249.022 749.581 245.405 740.584 241.82Z" fill="#FFFEFE"/>
<circle cx="765.269" cy="359.379" r="5.68578" fill="#3C3C7A"/>
<circle cx="753.805" cy="329.772" r="5.68578" transform="rotate(-20.6241 753.805 329.772)" fill="#3D3D7F"/>
<path d="M599.107 337.168C594.559 329.89 557.791 311.013 539.975 302.484C546.343 318.859 578.638 346.075 593.99 357.636C595.696 355.173 599.107 347.629 599.107 337.168Z" fill="#494A8E"/>
<circle cx="744.191" cy="304.227" r="5.68578" transform="rotate(-20.6241 744.191 304.227)" fill="#3D3D7F"/>
<path d="M633.222 122.815C629.81 135.892 619.955 138.546 616.733 139.873C625.641 146.506 645.844 159.545 650.848 156.361C657.102 152.381 680.414 101.778 669.042 96.6607C657.67 91.5435 636.633 110.307 635.496 113.149C634.359 115.992 633.222 119.404 633.222 122.815Z" fill="#FDB4B1"/>
<path d="M623.556 144.42C624.623 143.352 656.272 140.279 661.542 136.142C662.282 134.772 662.599 134.31 662.219 135.323C662.115 135.6 661.884 135.874 661.542 136.142C659.622 139.693 654.856 149.343 651.985 155.223L623.556 144.42Z" fill="#FC6D6B"/>
<path d="M638.339 119.405C642.508 119.026 652.781 115.084 660.513 102.348" stroke="#E64442"/>
<path d="M617.301 138.734C612.297 136.915 610.288 141.767 609.909 144.42C608.204 152.949 646.867 171.712 650.847 170.006C654.827 168.3 661.081 158.066 656.533 153.517C643.455 154.086 623.555 141.009 617.301 138.734Z" fill="#FFFEFE"/>
<path d="M543.955 225.16C565.333 182.403 595.695 153.519 608.204 144.422C632.311 154.429 647.815 167.165 652.553 172.282C640.424 197.11 615.027 246.311 608.204 260.412C601.381 274.512 608.204 300.97 612.753 310.447C609.531 319.354 601.268 341.263 593.99 357.638C530.878 311.015 517.232 278.606 543.955 225.16Z" fill="#1359D1"/>
<path d="M559.874 215.492C553.051 214.127 548.692 227.432 547.365 234.255C546.228 235.961 542.93 243.921 538.836 262.115C533.719 284.858 538.842 292.446 542.245 297.367C547.365 304.759 550.208 274.055 550.208 267.801C548.502 253.587 557.031 242.215 557.031 235.961C557.031 229.706 562.717 216.629 559.874 215.492Z" fill="#104DC8"/>
<path d="M606.499 289.976C584.666 269.507 616.165 198.435 635.497 165.457L652.554 172.28C641.183 194.834 616.961 242.897 611.048 254.724C603.657 269.507 606.499 279.173 606.499 289.976Z" fill="#104DC8"/>
<path d="M765.7 201.845C752.623 246.195 696.902 226.863 678.708 200.14C645.503 200.14 650.089 179.671 656.533 169.437C665.251 155.601 684.052 125.883 689.511 117.696C696.334 107.462 764.563 135.322 770.817 137.028C762.289 147.262 772.239 179.671 765.7 201.845Z" fill="#FDB4B1"/>
<path d="M707.136 132.479C696.675 124.291 685.341 131.721 680.982 136.459C693.491 100.07 752.623 132.479 768.543 140.439C764.563 152.948 720.214 142.713 707.136 132.479Z" fill="#FBB1D0"/>
<path d="M659.917 191.801C652.48 181.764 657.653 175.809 661.17 174.086C673.213 178.784 674.825 194.499 673.558 195.677C672.37 200.753 666.19 198.551 659.917 191.801Z" fill="#FF9B9A"/>
<path d="M661.171 174.084C665.713 175.16 674.55 180.983 673.559 195.675" stroke="#E64442"/>
<path d="M670.03 181.079C667.529 179.872 662.043 178.967 660.1 185.01" stroke="#E64442"/>
<path d="M760.221 144.993C747.719 147.255 719.021 147.821 706.235 147.821V161.957C706.235 174.681 681.764 188.233 669.85 173.34C667.593 170.518 655.74 163.745 654.611 178.42C653.213 196.591 660.819 195.918 664.771 198.175C644.451 203.255 633.781 132.27 652.25 105.409C670.718 78.5492 690.608 79.9618 694.87 82.7903C699.132 85.6187 701.973 91.2725 707.656 87.0303C717.601 78.5468 731.808 74.307 743.173 79.9618C754.538 85.6166 755.959 98.3411 767.325 95.5137C778.69 92.6863 792.897 98.3411 792.897 115.305C792.897 132.27 775.849 142.166 760.221 144.993Z" fill="#B20B10"/>
</svg>
