
<svg width="1500" height="1200" viewBox="0 0 1500 1200" fill="none" xmlns="http://www.w3.org/2000/svg">
<rect width="1500" height="1200" fill="white"/>
<path d="M860 455.605H1340V480.605H860V455.605Z" fill="#6BE57C"/>
<path d="M1138 478.785L1138 936.785L1108 936.785L1108 478.785L1138 478.785Z" fill="#335CBD"/>
<path d="M118 936.605H1383V946.605H118V936.605Z" fill="#EEEFEA"/>
<path d="M514.999 369.604C491.089 444.16 525.119 559.084 525.119 605.768L671.499 605.768C643.999 511.605 653.462 475.161 653.462 475.161C747.875 506.111 807.473 549.043 824.978 559.084L878.999 463.285C816.057 390.902 541.472 287.062 514.999 369.604Z" fill="#355CB7"/>
<path d="M878.999 463.283C869.5 463.283 812.599 531.982 824.999 558.783C846.332 558.283 890.5 493.283 878.999 463.283Z" fill="#3E4883"/>
<path d="M899.524 554.183L842.617 502.671C854.99 484.887 862.549 475.672 877.358 462.038C888.763 470.484 916.139 489.606 916.139 489.606L899.524 554.183Z" fill="#FEFEFE"/>
<path d="M877.358 462.037C862.549 475.671 854.99 484.886 842.617 502.671L845.505 505.285C847.815 496.485 873.13 476.73 885.499 467.953C882.394 465.723 879.574 463.679 877.358 462.037Z" fill="#3E4883"/>
<path d="M900.926 484.127C878.468 499.725 911.627 516.255 873.194 529.557L905.093 559.979C909.11 563.81 915.456 563.662 919.258 559.616C936.818 540.933 982.578 492.259 991.717 482.677C1031.19 441.289 937.274 458.883 900.926 484.127Z" fill="#355CB9"/>
<path d="M917.454 561.532C933.435 544.528 982.245 492.605 991.716 482.673C1002.46 471.404 1003.32 464.507 998.145 460.947C976.24 467.861 940.263 521.64 934.312 521.451C907.439 517.486 892.804 535.152 888.846 544.482L906.992 561.787C909.962 564.62 914.643 564.523 917.454 561.532Z" fill="#FAF9FD"/>
<path fill-rule="evenodd" clip-rule="evenodd" d="M999.167 473.102C998.923 472.973 998.831 472.67 998.96 472.426C1000.41 469.698 1000.9 467.466 1000.67 465.669C1000.43 463.892 999.476 462.471 997.865 461.363C997.637 461.207 997.579 460.895 997.736 460.668C997.892 460.44 998.204 460.383 998.431 460.539C1000.24 461.781 1001.38 463.437 1001.66 465.538C1001.93 467.619 1001.35 470.067 999.843 472.895C999.714 473.139 999.411 473.232 999.167 473.102Z" fill="#3E4981"/>
<path fill-rule="evenodd" clip-rule="evenodd" d="M905.558 482.4C906.914 474.921 905.793 469.047 904.011 465.119C903.056 463.012 901.922 461.489 900.903 460.569C900.392 460.108 899.936 459.822 899.573 459.677C899.201 459.529 899.009 459.558 898.945 459.58C897.693 460.013 896.935 461.128 896.714 462.985C896.492 464.86 896.859 467.302 897.717 469.925C899.252 474.617 902.236 479.544 905.558 482.4ZM894.728 462.749C895.001 460.456 896.05 458.465 898.291 457.69C898.964 457.457 899.678 457.566 900.314 457.82C900.958 458.077 901.612 458.515 902.243 459.084C903.507 460.225 904.789 461.992 905.832 464.293C907.926 468.909 909.105 475.77 907.198 484.389C907.126 484.713 906.898 484.981 906.589 485.103C906.28 485.225 905.931 485.186 905.657 484.998C901.37 482.066 897.621 476.064 895.816 470.547C894.911 467.779 894.458 465.025 894.728 462.749Z" fill="#3E4883"/>
<path fill-rule="evenodd" clip-rule="evenodd" d="M907.769 482.875C916.789 478.126 921.815 471.87 924.157 466.486C925.387 463.659 925.869 461.092 925.822 459.119C925.774 457.071 925.175 455.931 924.582 455.541C923.031 454.521 921.152 454.355 919.157 455.061C917.143 455.773 915.022 457.378 913.145 459.871C909.562 464.629 906.967 472.499 907.769 482.875ZM918.489 453.175C920.979 452.294 923.528 452.454 925.681 453.87C927.12 454.816 927.769 456.83 927.822 459.071C927.877 461.386 927.315 464.241 925.991 467.284C923.337 473.384 917.588 480.318 907.347 485.332C907.054 485.475 906.709 485.467 906.423 485.309C906.138 485.151 905.947 484.863 905.913 484.539C904.697 473.04 907.438 464.124 911.547 458.668C913.598 455.945 916.018 454.05 918.489 453.175Z" fill="#3E4883"/>
<path fill-rule="evenodd" clip-rule="evenodd" d="M857.32 515.533C857.508 515.331 857.824 515.32 858.026 515.508L862.378 519.561C862.58 519.749 862.592 520.066 862.403 520.268C862.215 520.47 861.899 520.481 861.697 520.293L857.345 516.24C857.143 516.051 857.131 515.735 857.32 515.533ZM864.012 521.728C864.199 521.524 864.515 521.509 864.719 521.696L899.859 553.805C900.063 553.991 900.077 554.307 899.891 554.511C899.705 554.715 899.389 554.729 899.185 554.543L864.044 522.434C863.84 522.248 863.826 521.931 864.012 521.728Z" fill="#2657AF"/>
<path fill-rule="evenodd" clip-rule="evenodd" d="M906.63 561.441C906.82 561.241 907.137 561.233 907.337 561.424C910.11 564.068 914.471 563.974 917.09 561.188C933.07 544.185 981.881 492.26 991.355 482.327C991.545 482.127 991.862 482.119 992.061 482.31C992.261 482.501 992.269 482.817 992.078 483.017C982.608 492.947 933.801 544.867 917.819 561.873C914.814 565.069 909.816 565.17 906.647 562.147C906.447 561.957 906.439 561.64 906.63 561.441Z" fill="#2657AF"/>
<path d="M376.43 389.816L338.499 430.784C334.993 416.318 320.999 384.784 287.128 365.532C262.036 351.27 310.089 302.753 329.689 306.237C349.29 309.722 378.806 350.194 377.303 360.188C376.101 368.184 365.628 370.544 360.542 370.725C360.542 370.725 366.379 381.468 376.43 389.816Z" fill="white"/>
<path fill-rule="evenodd" clip-rule="evenodd" d="M329.197 306.15C329.149 306.422 329.33 306.681 329.602 306.73C334.852 307.663 340.9 311.339 346.912 316.463C352.911 321.575 358.819 328.08 363.785 334.585C363.953 334.805 364.267 334.847 364.486 334.679C364.706 334.512 364.748 334.198 364.58 333.979C359.581 327.43 353.625 320.87 347.561 315.702C341.51 310.545 335.295 306.726 329.777 305.745C329.505 305.697 329.246 305.878 329.197 306.15ZM324.105 399.728C323.873 399.879 323.808 400.189 323.959 400.42C328.599 407.526 332.052 414.414 334.068 419.896C334.164 420.155 334.451 420.288 334.71 420.193C334.969 420.097 335.102 419.81 335.007 419.551C332.96 413.987 329.47 407.031 324.797 399.873C324.646 399.642 324.336 399.577 324.105 399.728ZM369.643 342.005C369.41 342.154 369.343 342.463 369.492 342.696C371.941 346.505 373.899 350.083 375.18 353.115C376.473 356.174 377.038 358.589 376.809 360.114C376.553 361.818 375.853 363.25 374.862 364.455C374.686 364.668 374.717 364.983 374.93 365.159C375.143 365.334 375.458 365.304 375.634 365.09C376.73 363.758 377.513 362.16 377.798 360.263C378.072 358.441 377.4 355.799 376.102 352.726C374.791 349.625 372.802 345.995 370.334 342.155C370.184 341.923 369.875 341.855 369.643 342.005ZM360.042 370.743C360.052 371.019 360.283 371.235 360.559 371.225C363.455 371.122 368.071 370.328 371.813 368.207C372.053 368.071 372.138 367.766 372.002 367.525C371.865 367.285 371.56 367.201 371.32 367.337C367.761 369.354 363.318 370.126 360.524 370.226C360.248 370.235 360.032 370.467 360.042 370.743Z" fill="#3E4883"/>
<path d="M360.818 370.725C360.818 370.725 366.379 381.469 376.431 389.817L369.544 394.823C363.563 387.886 357.925 367.552 360.818 370.725Z" fill="#3E4883"/>
<path d="M272.93 317.58C262.926 334.422 266.965 358.887 275.039 362.351C295.727 371.227 307.214 380.368 317.447 393.078C327.68 405.788 328.044 378.87 322.144 374.7C316.244 370.529 309.998 361.904 315.429 351.273C321.569 339.252 332.586 348.578 337.238 353.61C341.89 358.641 349.067 353.477 344.663 348.212C340.259 342.947 348.172 312.479 354.475 302.732C372.975 274.126 357.282 262.966 347.123 260.962C355.546 267.305 349.696 276.478 348.325 278.339C347.998 268.765 330.058 250.504 331.061 253.778C338.138 276.868 299.61 288.462 288.389 297.222C276.337 306.63 280.151 322.512 277.615 321.863C275.08 321.213 274.005 315.239 272.93 317.58Z" fill="#FA66A4"/>
<path d="M308.485 280.88C293.955 289.869 290.37 300.442 290.394 304.605C293.955 295.568 294.305 292.309 315.537 278.812C327.173 271.415 331.604 264.15 332.82 259.051C333.508 257.097 333.53 255.276 332.847 253.59C333.259 254.821 333.379 256.707 332.82 259.051C330.694 265.088 322.207 272.392 308.485 280.88Z" fill="#FA66A4"/>
<path d="M315.166 280.251C325.4 277.482 328.037 270.615 328.076 267.528C329.596 277.041 319.423 281.542 314.554 282.268C296.225 285.91 287.816 296.753 285.903 301.718C292.254 284.804 302.372 283.713 315.166 280.251Z" fill="#FA66A4"/>
<path d="M334.499 441.787C345.192 557.885 441.989 660.278 491 713.106L544.5 570.605C476.999 491.785 472.634 435.281 437.999 399.216C394 353.398 334.499 411.284 334.499 441.787Z" fill="#6CE480"/>
<path d="M738.245 919.768L736.771 859.225L788.5 855.283C790.169 868.638 793.434 888.906 793.434 888.906L738.245 919.768Z" fill="#FEFEFE"/>
<path d="M788.5 855.285L736.771 859.227L737.089 872.285L790.207 867.785C789.583 863.477 788.977 859.099 788.5 855.285Z" fill="#EFF0EA"/>
<path fill-rule="evenodd" clip-rule="evenodd" d="M789.234 859.234C789.508 859.2 789.758 859.395 789.792 859.669C790.626 866.341 791.66 873.63 792.486 879.252C792.898 882.063 793.259 884.457 793.517 886.148C793.645 886.994 793.748 887.663 793.819 888.122L793.928 888.826C793.928 888.826 793.928 888.827 793.54 888.887L793.928 888.826C793.971 889.099 793.784 889.355 793.511 889.398C793.238 889.44 792.983 889.254 792.94 888.981L793.337 888.919C792.94 888.981 792.94 888.981 792.94 888.981L792.831 888.274C792.76 887.815 792.657 887.145 792.528 886.299C792.27 884.606 791.909 882.211 791.496 879.398C790.67 873.772 789.635 866.475 788.8 859.793C788.766 859.519 788.96 859.269 789.234 859.234ZM737.142 865.49C737.418 865.486 737.644 865.708 737.647 865.984L737.714 871.623C737.718 871.899 737.496 872.126 737.22 872.129C736.944 872.132 736.718 871.911 736.714 871.635L736.647 865.996C736.644 865.719 736.865 865.493 737.142 865.49ZM737.27 874.137C737.547 874.131 737.775 874.35 737.781 874.626L738.745 919.755C738.751 920.031 738.532 920.26 738.256 920.265C737.98 920.271 737.751 920.052 737.745 919.776L736.781 874.647C736.775 874.371 736.994 874.143 737.27 874.137Z" fill="#3E4981"/>
<path d="M787.239 874.882C761.837 869.679 772.194 903.252 737.913 885.583L737.913 926.862C737.913 932.414 742.393 936.904 747.945 936.863C772.623 936.684 835.184 936.237 847.653 936.237C901.887 936.237 828.351 883.304 787.239 874.882Z" fill="#355CB9"/>
<path d="M744.935 936.885C767.062 936.723 834.638 936.236 847.652 936.236C862.42 936.236 867.714 932.311 866.769 926.429C847.688 915.922 787.237 926.429 783.472 922.222C768.606 901.185 746.904 902.705 737.912 906.094L737.912 929.872C737.912 933.765 741.042 936.913 744.935 936.885Z" fill="white"/>
<path fill-rule="evenodd" clip-rule="evenodd" d="M859.075 935.089C859 934.823 859.155 934.547 859.421 934.473C862.239 933.682 864.089 932.563 865.163 931.23C866.224 929.914 866.571 928.334 866.278 926.509C866.234 926.237 866.419 925.98 866.692 925.936C866.965 925.892 867.221 926.078 867.265 926.351C867.596 928.408 867.208 930.286 865.941 931.858C864.688 933.413 862.618 934.615 859.691 935.435C859.425 935.51 859.149 935.355 859.075 935.089Z" fill="#3E4981"/>
<path fill-rule="evenodd" clip-rule="evenodd" d="M791.501 876.838C797.465 872.89 800.733 868.307 802.253 864.539C803.071 862.511 803.372 860.743 803.337 859.45C803.319 858.801 803.217 858.309 803.082 857.971C802.943 857.626 802.804 857.525 802.762 857.504C801.67 856.94 800.43 857.139 799.02 858.197C797.596 859.265 796.165 861.108 794.929 863.41C792.732 867.499 791.313 872.714 791.501 876.838ZM797.82 856.597C799.581 855.276 801.656 854.683 803.679 855.726C804.294 856.043 804.693 856.616 804.938 857.226C805.186 857.843 805.314 858.585 805.336 859.395C805.381 861.018 805.005 863.061 804.107 865.287C802.305 869.756 798.36 875.064 791.189 879.402C790.905 879.574 790.554 879.593 790.252 879.454C789.951 879.315 789.738 879.035 789.684 878.707C788.888 873.832 790.558 867.319 793.167 862.463C794.475 860.028 796.073 857.907 797.82 856.597Z" fill="#315BB7"/>
<path fill-rule="evenodd" clip-rule="evenodd" d="M792.668 878.735C801.786 881.785 809.329 881.137 814.532 879.23C817.271 878.226 819.341 876.881 820.658 875.564C822.028 874.194 822.403 873.053 822.287 872.417C821.975 870.703 820.872 869.317 819.093 868.416C817.298 867.507 814.819 867.102 811.887 867.444C806.307 868.096 799.241 871.442 792.668 878.735ZM819.997 866.632C822.243 867.77 823.814 869.636 824.255 872.059C824.552 873.691 823.579 875.471 822.072 876.978C820.513 878.537 818.179 880.023 815.22 881.108C809.284 883.284 800.751 883.877 790.597 880.126C790.291 880.013 790.059 879.757 789.976 879.442C789.893 879.126 789.97 878.79 790.181 878.541C797.283 870.173 805.206 866.211 811.655 865.458C814.874 865.082 817.769 865.503 819.997 866.632Z" fill="#315BB7"/>
<path fill-rule="evenodd" clip-rule="evenodd" d="M737.913 929.37C738.189 929.37 738.413 929.594 738.413 929.87C738.413 933.489 741.321 936.409 744.932 936.383C767.058 936.221 834.637 935.734 847.654 935.734C847.93 935.734 848.154 935.958 848.154 936.234C848.154 936.51 847.93 936.734 847.654 936.734C834.642 936.734 767.069 937.221 744.94 937.383C740.765 937.413 737.413 934.037 737.413 929.87C737.413 929.594 737.637 929.37 737.913 929.37Z" fill="#3E4981"/>
<path d="M927 570.608C878.722 539.85 638 587.107 544.5 570.608L491 713.108C552.5 748.785 705.5 706.073 776 686.106C776 686.106 745 756.606 735.5 861.106L860 872.285C894.5 781.285 967 596.093 927 570.608Z" fill="#4AABF8"/>
<path fill-rule="evenodd" clip-rule="evenodd" d="M873.113 560.698C848.623 559.861 818.669 561.196 786.533 563.331L786.466 562.333C818.608 560.198 848.604 558.86 873.147 559.698C885.418 560.118 896.338 561.081 905.486 562.765C914.628 564.447 922.04 566.855 927.268 570.186L926.731 571.03C921.661 567.799 914.395 565.421 905.305 563.748C896.223 562.077 885.357 561.116 873.113 560.698ZM730.868 567.442C708.225 569.195 685.437 570.96 663.53 572.311L663.469 571.313C685.372 569.962 708.141 568.199 730.774 566.446C746.173 565.254 761.508 564.066 776.465 563.017L776.535 564.014C761.595 565.062 746.265 566.25 730.868 567.442ZM932.085 652.693L937.306 620.705L938.297 620.836C937.289 630.615 935.487 641.397 933.066 652.888C929.683 668.944 925.089 686.391 919.761 704.427C917.81 711.03 915.761 717.713 913.636 724.436L912.681 724.139L912.683 724.135L918.802 704.144C918.802 704.143 918.802 704.142 918.803 704.141C924.124 686.126 928.709 668.711 932.085 652.693ZM776.884 685.335L776.457 686.307L776.389 686.277C776.457 686.307 776.457 686.307 776.457 686.307L776.452 686.319L776.435 686.357C776.421 686.39 776.399 686.441 776.37 686.509C776.311 686.644 776.224 686.846 776.111 687.116C775.883 687.654 775.547 688.457 775.116 689.518C774.254 691.639 773.011 694.788 771.489 698.892C768.446 707.101 764.288 719.135 759.831 734.425L758.871 734.145C763.335 718.83 767.501 706.774 770.552 698.545C772.077 694.43 773.324 691.272 774.189 689.142C774.585 688.168 774.901 687.409 775.128 686.871C761.931 690.586 745.675 694.718 727.61 698.822L727.389 697.847C745.901 693.641 762.509 689.407 775.863 685.625L776.884 685.335ZM749.911 772.895C744.224 798.082 739.021 827.893 735.997 861.151L735.002 861.06C738.029 827.754 743.24 797.899 748.935 772.675L749.911 772.895ZM863.923 860.546C871.183 841.447 879.645 819.183 888.207 795.614L889.147 795.956C880.583 819.532 872.117 841.804 864.857 860.903C863.338 864.901 861.871 868.76 860.467 872.462L859.532 872.108C860.936 868.404 862.403 864.545 863.923 860.546Z" fill="#2657AF"/>
<path d="M730 936.106H678.5L597.621 630.184L617 624.606L730 936.106Z" fill="#FFFBFB"/>
<path fill-rule="evenodd" clip-rule="evenodd" d="M617.621 623.386L731.427 937.106H677.73L596.404 629.494L617.621 623.386ZM598.838 630.875L679.27 935.106H728.574L616.379 625.825L598.838 630.875Z" fill="#3D4A81"/>
<path d="M385 629.106L636.166 600.485C640.035 600.044 643.768 602.068 645.509 605.551C648.12 610.772 645.315 617.078 639.689 618.635L416.347 680.464L385 629.106Z" fill="#FFFBFB"/>
<path fill-rule="evenodd" clip-rule="evenodd" d="M644.615 605.999C643.061 602.891 639.731 601.085 636.279 601.479L386.67 629.923L416.808 679.299L639.422 617.671C644.441 616.282 646.944 610.657 644.615 605.999ZM636.052 599.492C640.339 599.003 644.474 601.245 646.404 605.104C649.295 610.888 646.188 617.874 639.956 619.599L415.887 681.629L383.33 628.29L636.052 599.492Z" fill="#3D4A81"/>
<path d="M362.5 936.604H319C319 936.604 382.873 823.311 430.902 790.286L429.579 779.701L458.689 758.53L469.736 769.116C547.662 731.246 650.593 703.812 711.505 691.931C718.426 690.581 725.306 694.288 728.118 700.755C732.267 710.298 725.833 721.105 715.499 722.324C622.744 733.269 548.249 760.872 490.445 793.255C406.779 840.127 362.5 936.604 362.5 936.604Z" fill="#FFFBFB"/>
<path fill-rule="evenodd" clip-rule="evenodd" d="M711.313 690.95C718.705 689.508 726.04 693.468 729.035 700.357C733.46 710.535 726.593 722.022 715.616 723.317C622.997 734.246 548.627 761.806 490.933 794.127C449.278 817.464 417.394 853.173 395.91 883.09C385.172 898.043 377.042 911.534 371.599 921.285C368.877 926.16 366.827 930.099 365.459 932.817C364.775 934.176 364.261 935.23 363.919 935.942C363.748 936.299 363.62 936.57 363.535 936.751C363.492 936.842 363.46 936.91 363.439 936.955L363.416 937.006L363.409 937.021C363.409 937.021 363.409 937.022 362.5 936.604L363.409 937.021L363.141 937.604H317.288L318.129 936.113L319 936.604C318.129 936.113 318.13 936.112 318.13 936.112L318.132 936.108L318.176 936.03L318.315 935.785C318.438 935.568 318.621 935.247 318.861 934.827C319.342 933.988 320.052 932.752 320.974 931.169C322.817 928.002 325.502 923.443 328.875 917.869C335.62 906.721 345.114 891.513 356.112 875.269C367.109 859.027 379.616 841.74 392.387 826.44C404.973 811.362 417.856 798.164 429.835 789.809L428.514 779.239L458.777 757.23L469.926 767.912C547.884 730.147 650.52 702.807 711.313 690.95ZM469.009 769.804L458.601 759.831L430.644 780.163L431.97 790.766L431.469 791.11C419.574 799.289 406.646 812.479 393.923 827.722C381.21 842.952 368.743 860.181 357.768 876.39C346.794 892.598 337.318 907.777 330.586 918.904C327.22 924.467 324.54 929.017 322.703 932.175C321.86 933.623 321.194 934.778 320.721 935.604H361.864C361.935 935.456 362.019 935.28 362.116 935.077C362.463 934.353 362.983 933.288 363.673 931.918C365.053 929.177 367.116 925.212 369.853 920.31C375.326 910.507 383.495 896.949 394.285 881.924C415.675 852.138 447.403 816.526 488.893 792.982L469.009 769.804ZM490.671 791.983C548.484 759.711 622.873 732.247 715.382 721.331C725.073 720.187 731.073 710.061 727.201 701.154C724.572 695.108 718.147 691.654 711.696 692.913C651.132 704.725 549.017 731.925 471.34 769.45L490.671 791.983Z" fill="#3D4A81"/>
<path d="M391.107 655.989L372.683 664.587L387.237 692.374L404.591 681.218C405.166 680.848 405.209 680.023 404.675 679.596L392.905 670.18C392.668 669.991 392.53 669.703 392.53 669.399V656.895C392.53 656.164 391.77 655.68 391.107 655.989Z" fill="white"/>
<path fill-rule="evenodd" clip-rule="evenodd" d="M392.03 656.895C392.03 656.53 391.65 656.288 391.319 656.442L373.369 664.819L387.427 691.658L404.321 680.797C404.609 680.613 404.63 680.2 404.363 679.986L392.593 670.571C392.238 670.286 392.03 669.855 392.03 669.399V656.895ZM390.896 655.536C391.891 655.072 393.03 655.798 393.03 656.895V669.399C393.03 669.551 393.099 669.695 393.218 669.79L404.988 679.206C405.789 679.846 405.725 681.084 404.862 681.639L387.048 693.09L371.997 664.356L390.896 655.536Z" fill="black"/>
<path d="M458.688 758.532L330.503 492.412C325.089 481.17 310.705 477.756 300.815 485.363C293.369 491.091 291.018 501.287 295.203 509.696L429.579 779.702L458.688 758.532Z" fill="#FFFBFB"/>
<path fill-rule="evenodd" clip-rule="evenodd" d="M300.205 484.571C310.598 476.576 325.714 480.165 331.404 491.978L459.951 758.85L429.21 781.207L294.308 510.142C289.91 501.304 292.381 490.59 300.205 484.571ZM329.602 492.846C324.463 482.176 310.811 478.935 301.425 486.156C294.358 491.592 292.126 501.269 296.099 509.251L429.947 778.198L457.425 758.214L329.602 492.846Z" fill="#3D4A81"/>
<path d="M332.848 453.102C332.848 386.786 425.776 401.106 425.776 453.102C425.776 464.635 422.953 549.607 425.776 568.607C428.154 584.607 487.682 710.106 487.682 710.106L425.776 741.606C425.776 741.606 366.393 664.809 348.064 584.105C337.431 537.283 332.848 480.107 332.848 453.102Z" fill="#6CE480"/>
<path fill-rule="evenodd" clip-rule="evenodd" d="M425.085 544.158C425.218 554.981 425.571 563.82 426.271 568.532C426.481 569.947 427.164 572.293 428.253 575.42C429.338 578.536 430.814 582.393 432.592 586.813L431.664 587.186C429.883 582.759 428.401 578.886 427.309 575.749C426.221 572.624 425.507 570.197 425.282 568.678C424.57 563.889 424.218 554.982 424.085 544.17C423.953 533.345 424.041 520.577 424.218 508.046C424.416 494.001 424.724 480.263 424.957 469.88C425.14 461.723 425.276 455.637 425.276 453.101H426.276C426.276 455.641 426.14 461.744 425.956 469.919C425.723 480.309 425.415 494.045 425.218 508.06C425.041 520.588 424.953 533.346 425.085 544.158ZM348.552 583.993C354.107 608.452 363.443 632.562 373.757 654.285L372.853 654.714C362.519 632.948 353.153 608.766 347.577 584.214L348.552 583.993ZM488.134 709.89C488.134 709.89 488.134 709.89 487.682 710.105C487.23 710.319 487.23 710.319 487.23 710.318L487.229 710.316L487.225 710.308L486.905 709.631C486.691 709.18 486.375 708.511 485.966 707.646C485.148 705.915 483.96 703.395 482.476 700.238C479.509 693.925 475.361 685.068 470.641 674.887C461.2 654.526 449.464 628.87 440.289 607.698L441.207 607.301C450.376 628.46 462.108 654.107 471.548 674.466C476.268 684.645 480.414 693.501 483.381 699.813C484.864 702.969 486.053 705.488 486.87 707.219C487.279 708.084 487.595 708.752 487.809 709.204L488.129 709.879L488.133 709.888L488.134 709.89ZM426.071 741.377L425.776 741.605C425.381 741.911 425.381 741.91 425.381 741.91L425.38 741.909L425.317 741.827C425.275 741.773 425.212 741.691 425.13 741.583C424.965 741.366 424.721 741.044 424.402 740.621C423.766 739.773 422.834 738.518 421.649 736.887C419.279 733.625 415.899 728.86 411.856 722.844C403.771 710.811 393.03 693.77 382.412 673.733L383.296 673.265C393.894 693.263 404.615 710.275 412.686 722.286C416.722 728.291 420.095 733.046 422.458 736.299C423.639 737.926 424.569 739.176 425.202 740.02C425.519 740.442 425.762 740.762 425.925 740.977C426.007 741.084 426.069 741.165 426.11 741.218L426.168 741.294L426.171 741.298L426.172 741.299C426.172 741.299 426.172 741.299 426.071 741.377Z" fill="#345FB6"/>
<path d="M426.001 741.284C435.668 733.118 461.501 715.484 487.501 710.284C487.163 710.353 451.001 739.784 426.001 741.284Z" fill="#3E4883"/>
<path d="M500.767 764.071C501.786 750.831 483.61 726.59 473.001 714.284C461.894 718.914 455.585 721.294 444.501 727.784C434.317 746.879 454.303 760.252 458.122 771.708C461.941 783.165 437.118 806.716 452.394 805.443C467.67 804.17 499.494 780.619 500.767 764.071Z" fill="white"/>
<path fill-rule="evenodd" clip-rule="evenodd" d="M487.718 734.304C482.653 726.785 476.994 719.682 472.622 714.611L473.379 713.958C477.77 719.052 483.456 726.187 488.547 733.745C493.633 741.295 498.151 749.305 500.176 756.142L499.217 756.426C497.237 749.739 492.788 741.831 487.718 734.304ZM444.942 728.02C440.618 736.127 441.842 743.161 444.949 749.502L444.051 749.942C440.845 743.399 439.544 736.015 444.059 727.549L444.942 728.02ZM451.945 760.442C454.752 764.329 457.419 768.021 458.596 771.55C459.612 774.599 458.708 778.37 457.152 782.181C455.88 785.295 454.13 788.531 452.5 791.546C452.125 792.238 451.757 792.919 451.402 793.585C450.448 795.373 449.592 797.047 448.96 798.544C448.324 800.049 447.935 801.332 447.88 802.347C447.826 803.344 448.094 804.004 448.693 804.417C449.338 804.861 450.475 805.101 452.351 804.944L452.434 805.941C450.491 806.103 449.063 805.885 448.126 805.24C447.145 804.564 446.816 803.504 446.881 802.293C446.946 801.1 447.391 799.688 448.039 798.155C448.689 796.613 449.564 794.906 450.52 793.114C450.881 792.437 451.254 791.747 451.631 791.049C453.26 788.037 454.977 784.862 456.226 781.803C457.773 778.015 458.54 774.546 457.647 771.867C456.523 768.494 453.956 764.937 451.128 761.019C450.784 760.543 450.437 760.062 450.089 759.576L450.901 758.993C451.25 759.479 451.599 759.962 451.945 760.442ZM495.972 774.83C498.456 771.06 500.011 767.376 500.268 764.032L501.265 764.109C500.99 767.688 499.339 771.538 496.807 775.38C494.271 779.228 490.828 783.103 486.919 786.736C479.105 794.001 469.379 800.349 461.186 803.627L460.815 802.698C468.875 799.474 478.499 793.199 486.238 786.004C490.106 782.408 493.491 778.594 495.972 774.83Z" fill="#3E4883"/>
<path d="M397.513 368.066L416.62 383.743C417.593 384.542 419.054 384.253 419.65 383.144L436.66 351.507L398.137 364.626C396.652 365.132 396.3 367.071 397.513 368.066Z" fill="#3E4883"/>
<path d="M367.124 263.794L300.5 296.785L368.166 384.654C368.764 385.431 369.836 385.659 370.699 385.195L436.255 349.886L369.589 264.357C369.005 263.608 367.975 263.373 367.124 263.794Z" fill="#345BB8"/>
<path d="M295.056 299.869L300.5 296.785L368.27 383.959C368.872 384.734 369.947 384.957 370.808 384.487L435.669 349.075L436.402 350.09C437.103 351.06 436.8 352.425 435.755 353.008L367.97 390.834C367.121 391.308 366.054 391.102 365.442 390.347L294.488 302.869C293.709 301.908 293.98 300.478 295.056 299.869Z" fill="#EEEFE9"/>
<path d="M1141.26 324.274L1048.4 446.671C1040.59 456.961 1025.92 458.974 1015.63 451.167C1005.34 443.36 1003.33 428.689 1011.14 418.399L1104 296.002L1141.26 324.274Z" fill="#3B59B9"/>
<path d="M1136.1 320.361L1047.89 436.622C1042.25 444.063 1031.64 445.518 1024.2 439.873C1016.76 434.228 1015.31 423.62 1020.95 416.179L1109.16 299.918L1136.1 320.361Z" fill="white"/>
<path d="M1026.94 436.26L1122.63 310.137L1129.37 315.247L1026.94 436.26Z" fill="#EEEFE9"/>
<path d="M1119.15 409.329H1272.79C1285.7 409.329 1296.18 419.8 1296.18 432.717C1296.18 445.634 1285.7 456.105 1272.79 456.105H1119.15V409.329Z" fill="#4AABF8"/>
<path d="M1119 420.181H1266.5C1274.51 420.181 1281 426.673 1281 434.681C1281 442.689 1274.51 449.181 1266.5 449.181H1119V420.181Z" fill="white"/>
<path d="M1277.46 432.716H1119.15V424.26L1277.46 432.716Z" fill="#EEEFE9"/>
<path d="M1099 379.107H1276.03V409.331H1099V379.107Z" fill="#3B59B9"/>
<path d="M1302.65 346.001H1142.18C1133.03 346.001 1125.62 353.412 1125.62 362.552C1125.62 371.693 1133.03 379.104 1142.18 379.104H1302.65V346.001Z" fill="#6BE57C"/>
<path d="M1303 350.181H1149C1142.37 350.181 1137 355.554 1137 362.181C1137 368.808 1142.37 374.181 1149 374.181H1303V350.181Z" fill="white"/>
<path d="M1146.49 362.554H1302.65V356.797L1146.49 362.554Z" fill="#EEEFE9"/>
<path d="M1302.65 368.309H1146.49V365.43L1302.65 368.309Z" fill="#EEEFE9"/>
</svg>
